<svg width="493" height="486" viewBox="0 0 493 486" fill="none" xmlns="http://www.w3.org/2000/svg">
<g clip-path="url(#clip0_251_4544)">
<path d="M485.771 220.34C477.811 190.78 389.141 106.66 349.361 56.6502C309.571 6.63019 249.331 -13.8398 220.911 11.1702C192.491 36.1802 169.761 28.2202 108.371 45.2702C46.9807 62.3202 27.6607 125.99 27.6607 140.77C27.6607 155.55 24.2507 251.04 12.8807 278.32C1.51072 305.6 -5.30928 349.94 7.20072 362.44C19.7007 374.94 35.6207 409.05 49.2607 429.51C62.9007 449.97 79.4807 459.1 100.411 460.2C122.011 461.34 141.331 464.75 235.691 481.8C330.041 498.85 352.781 437.47 352.781 437.47C368.691 401.09 403.931 376.08 452.821 331.75C501.711 287.42 493.741 249.9 485.791 220.35L485.771 220.34ZM222.041 23.5902V24.8102C222.041 24.8102 269.781 -2.46981 307.301 28.2202C344.811 58.9102 301.621 31.6302 301.621 31.6302C301.621 31.6302 268.651 13.4402 230.001 25.9502C191.351 38.4502 222.041 23.5902 222.041 23.5902ZM31.0707 265.81C29.9107 273.68 28.8007 294.23 18.5707 318.1C8.34072 341.97 18.3707 351.14 19.7107 354.48C26.5307 371.53 17.9607 361.14 17.9607 361.14C17.9607 361.14 9.48072 351.07 8.34072 338.56C7.20072 326.06 23.9707 293.06 25.3907 265.81C27.0707 233.78 32.1807 258.29 31.0707 265.81ZM37.8907 154.41C37.8907 154.41 48.1207 74.8402 108.371 60.0602C168.621 45.2802 104.961 66.8802 104.961 66.8802C104.961 66.8802 53.8107 95.3002 45.8507 152.14C37.8907 208.98 37.8907 154.41 37.8907 154.41ZM374.371 382.9C353.911 413.59 244.781 476.11 133.381 424.96C133.381 424.96 92.4607 397.68 120.881 409.05C120.881 409.05 260.701 480.67 367.561 379.49C367.561 379.49 394.841 352.21 374.381 382.9H374.371ZM131.091 347.49C131.861 344.72 130.271 334.74 130.271 334.74C129.761 325.34 139.981 325.08 139.981 325.08C139.581 324.44 140.231 324.04 140.231 324.04C148.151 324.67 157.051 328.58 157.391 328.55C157.731 328.52 164.881 328.21 163.801 327.63C162.721 327.05 161.801 324.44 161.801 324.44C161.801 324.44 164.081 326.93 174.501 321.26C184.921 315.59 191.081 319.41 191.451 319.72C191.821 320.02 193.211 320.24 193.211 320.24C192.811 319.6 191.801 308.56 191.801 308.56C191.521 309.26 189.951 310.75 189.951 310.75C187.981 307.89 188.081 297.76 188.391 297.39C188.701 297.02 188.981 292.61 188.521 291.3C188.061 289.99 186.921 288.75 186.981 285.7C187.041 282.66 186.061 283.08 186.061 283.08C181.061 288.26 170.771 295.27 170.771 295.27C161.341 296.8 152.561 297.94 152.561 297.94C149.361 296.54 146.591 292.41 146.131 291.1C145.671 289.79 145.301 285.78 145.211 284.77C145.121 283.77 147.241 284.58 147.641 285.22C148.041 285.86 152.471 289.5 152.471 289.5C152.471 289.5 154.011 291.38 154.661 290.99C155.311 290.6 154.511 289.32 154.511 289.32C151.741 285.18 149.991 277.24 149.961 276.91C149.931 276.58 150.581 276.18 150.951 276.48C151.321 276.78 156.311 279.03 156.311 279.03C156.311 279.03 156.041 276.02 156.591 274.62C157.151 273.22 157.551 273.86 158.221 273.8C158.901 273.74 162.471 279.15 162.471 279.15C162.931 276.75 169.101 272.47 169.101 272.47L167.341 272.63C167.341 272.63 168.021 268.86 167.321 264.87C166.621 260.88 164.341 258.39 162.151 255.05C159.971 251.71 156.711 238.5 156.531 240.21C156.531 240.3 156.511 240.39 156.491 240.48C156.131 242.2 154.221 244.81 154.221 244.81C148.101 237.61 151.481 210.97 151.481 210.97C150.491 211.4 148.801 211.55 148.801 211.55C147.821 200.84 162.781 181.25 162.781 181.25C161.791 181.68 159.021 181.25 159.021 181.25C169.211 161.76 204.121 151.15 204.121 151.15C223.081 137.95 234.061 123.45 234.061 123.45L230.981 123.39C230.981 123.39 231.001 123.32 231.011 123.29C232.911 117.08 242.761 110.17 242.761 110.17L241.031 109.99C244.301 104.63 251.671 102.95 251.671 102.95L249.511 101.8C249.511 101.8 264.641 95.3602 271.941 100.43C279.241 105.5 282.401 117.7 282.401 117.7C285.421 117.09 284.921 122.87 283.691 124.33C282.461 125.79 283.781 125.33 283.781 125.33C290.371 126.42 290.431 130.8 291.231 132.08C292.031 133.36 290.701 133.82 289.811 135.25C288.921 136.68 289.961 136.92 290.331 137.23C290.701 137.53 291.501 138.81 292.211 139.08C292.921 139.35 292.641 140.05 292.361 140.75C292.081 141.45 291.741 141.48 292.851 142.39C293.961 143.3 294.021 143.97 293.801 145.34C293.581 146.71 293.311 147.41 293.521 149.75C293.731 152.09 295.951 153.92 296.501 156.23C297.051 158.54 295.381 162.74 294.711 162.81C294.031 162.87 293.601 161.9 293.601 161.9C293.411 163.6 291.011 167.2 291.071 167.87C291.131 168.54 289.681 171.37 288.051 172.2C286.421 173.02 286.601 171.32 285.461 170.07C284.321 168.82 283.641 168.89 282.971 168.95C282.291 169.01 282.111 170.72 282.481 171.02C282.851 171.32 285.161 174.15 285.221 174.82C285.281 175.49 284.201 174.91 283.531 174.97C282.861 175.03 283.621 175.97 283.621 175.97C293.371 189.26 291.631 203.93 291.631 203.93C290.581 203.69 288.671 201.5 288.671 201.5C290.601 211.45 285.351 221.38 285.351 221.38C302.971 223.49 316.151 233.09 316.151 233.09C315.501 233.49 312.391 233.09 312.391 233.09C325.291 239.68 334.681 252.66 336.151 253.88C337.621 255.1 340.211 257.22 342.001 258.07C343.791 258.92 342.701 262.06 342.701 262.06C342.701 262.06 345.751 265.5 346.151 266.13C346.551 266.77 349.631 270.54 348.891 275.53C348.151 280.52 344.941 282.78 343.061 284.64C341.181 286.5 341.431 281.75 341.311 280.41C341.191 279.07 341.591 276 341.841 274.96C342.091 273.92 340.921 272.34 340.181 271.74C339.441 271.13 339.531 272.16 339.531 272.16L339.891 276.15C340.041 277.82 340.011 281.2 338.771 282.66C337.541 284.12 334.451 287.78 332.511 288.97C330.571 290.16 330.751 288.45 330.721 288.12C330.691 287.79 330.941 286.75 331.551 286.02C332.171 285.29 333.161 281.15 333.371 279.78C333.591 278.41 333.131 277.1 332.301 275.49C331.471 273.88 330.971 275.95 330.971 275.95C330.971 275.95 330.131 285.48 329.851 286.18C329.571 286.88 325.261 288.29 325.261 288.29C325.261 288.29 318.821 288.88 318.111 288.6C317.401 288.33 318.271 286.56 318.571 286.2C318.871 285.84 322.641 282.12 323.241 281.23C323.841 280.34 323.131 280.04 323.041 279.04C322.951 278.04 321.991 278.8 321.991 278.8C321.991 278.8 319.741 284.07 318.101 284.89C316.471 285.71 315.421 285.47 315.421 285.47C315.421 285.47 308.741 283.38 307.691 283.14C306.641 282.9 306.521 281.56 306.521 281.56C307.631 278.76 314.071 278.17 314.721 277.78C315.371 277.38 314.481 275.1 314.481 275.1C312.321 273.95 309.281 266.8 309.281 266.8C303.461 266.66 300.291 265.59 300.291 265.59C301.031 266.2 300.471 267.6 300.471 267.6C298.741 267.42 293.361 264.54 293.361 264.54L293.421 265.21C293.431 265.34 293.421 265.45 293.391 265.56C293.201 266.32 292.181 266.67 292.181 266.67C287.371 266.43 263.321 257.49 263.321 257.49C262.361 258.25 260.881 260.75 260.881 260.75C279.241 267.18 287.971 284.27 287.971 284.27C287.631 284.3 285.911 284.12 285.911 284.12C300.721 296.61 298.981 311.28 298.981 311.28C297.591 311.07 296.791 309.79 296.791 309.79C298.471 324.49 294.771 328.87 294.771 328.87C294.371 328.23 293.661 327.96 293.661 327.96C294.861 333.59 289.421 345.22 289.421 345.22L289.451 345.55C289.461 345.7 289.451 345.65 289.451 345.55C289.421 345.21 288.871 342.9 288.871 342.9C287.701 345.03 284.291 360.57 285.491 365.82C286.631 370.78 297.501 373.84 299.531 373.65C301.561 373.46 307.081 373.97 307.791 374.25C308.501 374.52 314.661 378.35 313.981 378.41C313.301 378.47 310.251 378.75 310.251 378.75L312.411 379.9C313.491 380.48 317.551 383.82 318.261 384.09C318.971 384.36 324.331 386.91 325.741 387.46C327.161 388.01 325.651 390.17 323.951 390.32C322.261 390.47 321.361 391.91 320.501 393.67C319.641 395.44 316.461 395.41 314.491 395.23C312.521 395.05 310.701 393.81 309.471 392.65C307.891 391.16 307.371 392.55 307.441 392.84C307.441 392.84 306.451 393.27 305.191 394.4C303.931 395.53 302.961 395.95 300.231 396.2C296.841 396.51 294.351 395.39 288.491 394.91C285.461 394.66 265.471 397.34 256.881 396.78C248.281 396.21 248.111 390.49 247.861 387.81C247.611 385.13 251.961 380.35 251.961 380.35C251.961 380.35 250.631 380.81 249.961 380.87C249.281 380.93 249.191 379.93 249.191 379.93C253.231 375.51 256.141 362.42 256.141 362.42C260.061 352.95 255.141 340.24 255.141 340.24C255.141 340.24 254.281 338.29 253.601 338.36C252.921 338.42 251.661 339.55 251.661 339.55C250.771 333.56 253.951 323.48 254.791 321.38C255.631 319.28 254.821 318 254.821 318C254.821 318 251.101 314.63 251.131 314.96C251.161 315.29 250.881 316 250.881 316C249.861 316.09 248.081 315.24 245.951 314.42C243.831 313.6 241.121 310.14 241.121 310.14C241.121 310.14 239.671 316.69 239.391 317.39C239.111 318.09 237.661 320.92 236.921 320.31C236.181 319.7 235.631 317.39 235.631 317.39C235.441 319.09 233.561 328.38 229.541 336.85C225.531 345.32 220.631 347.79 218.991 348.61C217.351 349.43 214.651 349.68 212.891 349.17C211.131 348.65 193.141 349.96 193.141 349.96C193.141 349.96 178.971 351.93 170.151 352.73C161.331 353.53 158.831 363.55 159.721 365.83C160.611 368.11 161.471 377.48 161.471 377.48C161.471 377.48 161.061 384.27 160.041 388.07C159.021 391.87 155.511 390.85 154.091 390.3C152.671 389.75 152.551 388.42 152.431 387.08C152.311 385.74 153.361 382.27 153.271 381.27C153.181 380.27 152.321 378.32 150.961 378.44C149.601 378.56 149.451 380.6 149.451 380.6C149.451 380.6 149.971 382.58 149.511 384.98C149.051 387.38 146.611 386.93 145.561 386.69C144.511 386.45 142.971 384.56 142.971 384.56C138.381 386.67 137.361 383.05 137.361 383.05C132.951 383.45 132.401 381.14 132.401 381.14L131.751 381.54C128.761 382.49 127.191 380.27 126.781 379.42C126.371 378.57 126.981 374.21 127.441 371.81C127.901 369.41 126.491 365.15 125.821 361.49C125.374 359.057 126.251 356.164 128.451 352.81C131.751 347.78 131.041 347.51 131.041 347.51L131.091 347.49ZM388.011 153.27C388.011 153.27 309.571 25.9502 163.231 88.6802C22.5407 148.99 52.2807 294.87 54.7807 306.05C54.8907 306.54 54.9607 307.02 55.0007 307.52C55.4807 314.3 58.5507 361.05 45.8507 296.5C32.2107 227.16 69.7207 82.7902 187.951 62.3302C306.181 41.8702 370.971 116.89 391.431 147.59C411.891 178.28 388.021 153.27 388.021 153.27H388.011ZM445.991 311.28C445.991 311.28 433.491 319.24 452.811 291.95C472.141 264.67 459.961 230.53 459.961 230.53C459.961 230.53 417.571 155.54 458.501 218.06C499.421 280.58 446.001 311.27 446.001 311.27L445.991 311.28Z" fill="#9B191B"/>
<path d="M289.451 345.55L289.421 345.22C289.421 345.22 294.861 333.59 293.661 327.96C293.661 327.96 294.371 328.23 294.771 328.87C294.771 328.87 298.471 324.49 296.791 309.79C296.791 309.79 297.591 311.07 298.981 311.28C298.981 311.28 300.721 296.61 285.911 284.12C285.911 284.12 287.631 284.3 287.971 284.27C287.971 284.27 279.241 267.18 260.881 260.75C260.881 260.75 262.361 258.25 263.321 257.49C263.321 257.49 287.371 266.43 292.181 266.67C292.181 266.67 293.201 266.32 293.391 265.56C293.421 265.45 293.431 265.34 293.421 265.21L293.361 264.54C293.361 264.54 298.741 267.42 300.471 267.6C300.471 267.6 301.031 266.2 300.291 265.59C300.291 265.59 303.461 266.66 309.281 266.8C309.281 266.8 312.321 273.95 314.481 275.1C314.481 275.1 315.371 277.38 314.721 277.78C314.071 278.17 307.631 278.76 306.521 281.56C306.521 281.56 306.641 282.9 307.691 283.14C308.741 283.38 315.421 285.47 315.421 285.47C315.421 285.47 316.471 285.71 318.101 284.89C319.741 284.07 321.991 278.8 321.991 278.8C321.991 278.8 322.951 278.04 323.041 279.04C323.131 280.04 323.841 280.34 323.241 281.23C322.641 282.12 318.871 285.84 318.571 286.2C318.271 286.56 317.401 288.33 318.111 288.6C318.821 288.88 325.261 288.29 325.261 288.29C325.261 288.29 329.571 286.88 329.851 286.18C330.131 285.48 330.971 275.95 330.971 275.95C330.971 275.95 331.471 273.88 332.301 275.49C333.131 277.1 333.591 278.41 333.371 279.78C333.161 281.15 332.171 285.29 331.551 286.02C330.941 286.75 330.691 287.79 330.721 288.12C330.751 288.45 330.571 290.16 332.511 288.97C334.451 287.78 337.541 284.12 338.771 282.66C340.011 281.2 340.041 277.82 339.891 276.15L339.531 272.16C339.531 272.16 339.441 271.13 340.181 271.74C340.921 272.34 342.091 273.92 341.841 274.96C341.591 276 341.191 279.07 341.311 280.41C341.431 281.75 341.181 286.5 343.061 284.64C344.941 282.78 348.151 280.52 348.891 275.53C349.631 270.54 346.551 266.77 346.151 266.13C345.751 265.5 342.701 262.06 342.701 262.06C342.701 262.06 343.791 258.92 342.001 258.07C340.211 257.22 337.621 255.1 336.151 253.88C334.681 252.66 325.291 239.68 312.391 233.09C312.391 233.09 315.501 233.49 316.151 233.09C316.151 233.09 302.971 223.49 285.351 221.38C285.351 221.38 290.601 211.45 288.671 201.5C288.671 201.5 290.581 203.69 291.631 203.93C291.631 203.93 293.371 189.26 283.621 175.97C283.621 175.97 282.861 175.03 283.531 174.97C284.201 174.91 285.281 175.49 285.221 174.82C285.161 174.15 282.851 171.32 282.481 171.02C282.111 170.72 282.291 169.01 282.971 168.95C283.641 168.89 284.321 168.82 285.461 170.07C286.601 171.32 286.421 173.02 288.051 172.2C289.681 171.37 291.131 168.54 291.071 167.87C291.011 167.2 293.411 163.6 293.601 161.9C293.601 161.9 294.031 162.87 294.711 162.81C295.381 162.74 297.051 158.54 296.501 156.23C295.951 153.92 293.731 152.09 293.521 149.75C293.311 147.41 293.581 146.71 293.801 145.34C294.021 143.97 293.961 143.3 292.851 142.39C291.741 141.48 292.081 141.45 292.361 140.75C292.641 140.05 292.921 139.35 292.211 139.08C291.501 138.81 290.701 137.53 290.331 137.23C289.961 136.92 288.921 136.68 289.811 135.25C290.701 133.82 292.031 133.36 291.231 132.08C290.431 130.8 290.371 126.42 283.781 125.33C283.781 125.33 282.461 125.79 283.691 124.33C284.921 122.87 285.421 117.09 282.401 117.7C282.401 117.7 279.241 105.5 271.941 100.43C264.641 95.3602 249.511 101.8 249.511 101.8L251.671 102.95C251.671 102.95 244.301 104.63 241.031 109.99L242.761 110.17C242.761 110.17 232.911 117.08 231.011 123.29C231.001 123.32 230.981 123.39 230.981 123.39L234.061 123.45C234.061 123.45 223.081 137.95 204.121 151.15C204.121 151.15 169.211 161.76 159.021 181.25C159.021 181.25 161.791 181.68 162.781 181.25C162.781 181.25 147.821 200.84 148.801 211.55C148.801 211.55 150.491 211.4 151.481 210.97C151.481 210.97 148.101 237.61 154.221 244.81C154.221 244.81 156.131 242.2 156.491 240.48C156.511 240.39 156.531 240.3 156.531 240.21C156.711 238.5 159.971 251.71 162.151 255.05C164.341 258.39 166.621 260.88 167.321 264.87C168.021 268.86 167.341 272.63 167.341 272.63L169.101 272.47C169.101 272.47 162.931 276.75 162.471 279.15C162.471 279.15 158.901 273.74 158.221 273.8C157.551 273.86 157.151 273.22 156.591 274.62C156.041 276.02 156.311 279.03 156.311 279.03C156.311 279.03 151.321 276.78 150.951 276.48C150.581 276.18 149.931 276.58 149.961 276.91C149.991 277.24 151.741 285.18 154.511 289.32C154.511 289.32 155.311 290.6 154.661 290.99C154.011 291.38 152.471 289.5 152.471 289.5C152.471 289.5 148.041 285.86 147.641 285.22C147.241 284.58 145.121 283.77 145.211 284.77C145.301 285.78 145.671 289.79 146.131 291.1C146.591 292.41 149.361 296.54 152.561 297.94C152.561 297.94 161.341 296.8 170.771 295.27C170.771 295.27 181.061 288.26 186.061 283.08C186.061 283.08 187.041 282.66 186.981 285.7C186.921 288.75 188.061 289.99 188.521 291.3C188.981 292.61 188.701 297.02 188.391 297.39C188.081 297.76 187.981 307.89 189.951 310.75C189.951 310.75 191.521 309.26 191.801 308.56C191.801 308.56 192.811 319.6 193.211 320.24C193.211 320.24 191.821 320.02 191.451 319.72C191.081 319.41 184.921 315.59 174.501 321.26C164.081 326.93 161.801 324.44 161.801 324.44C161.801 324.44 162.721 327.05 163.801 327.63C164.881 328.21 157.731 328.52 157.391 328.55C157.051 328.58 148.151 324.67 140.231 324.04C140.231 324.04 139.581 324.44 139.981 325.08C139.981 325.08 129.761 325.34 130.271 334.74C130.271 334.74 131.861 344.72 131.091 347.49L131.041 347.51C131.041 347.51 131.751 347.78 128.451 352.81C126.251 356.164 125.374 359.057 125.821 361.49C126.491 365.15 127.901 369.41 127.441 371.81C126.981 374.21 126.371 378.57 126.781 379.42C127.191 380.27 128.761 382.49 131.751 381.54L132.401 381.14C132.401 381.14 132.951 383.45 137.361 383.05C137.361 383.05 138.381 386.67 142.971 384.56C142.971 384.56 144.511 386.45 145.561 386.69C146.611 386.93 149.051 387.38 149.511 384.98C149.971 382.58 149.451 380.6 149.451 380.6C149.451 380.6 149.601 378.56 150.961 378.44C152.321 378.32 153.181 380.27 153.271 381.27C153.361 382.27 152.311 385.74 152.431 387.08C152.551 388.42 152.671 389.75 154.091 390.3C155.511 390.85 159.021 391.87 160.041 388.07C161.061 384.27 161.471 377.48 161.471 377.48C161.471 377.48 160.611 368.11 159.721 365.83C158.831 363.55 161.331 353.53 170.151 352.73C178.971 351.93 193.141 349.96 193.141 349.96C193.141 349.96 211.131 348.65 212.891 349.17C214.651 349.68 217.351 349.43 218.991 348.61C220.631 347.79 225.531 345.32 229.541 336.85C233.561 328.38 235.441 319.09 235.631 317.39C235.631 317.39 236.181 319.7 236.921 320.31C237.661 320.92 239.111 318.09 239.391 317.39C239.671 316.69 241.121 310.14 241.121 310.14C241.121 310.14 243.831 313.6 245.951 314.42C248.081 315.24 249.861 316.09 250.881 316C250.881 316 251.161 315.29 251.131 314.96C251.101 314.63 254.821 318 254.821 318C254.821 318 255.631 319.28 254.791 321.38C253.951 323.48 250.771 333.56 251.661 339.55C251.661 339.55 252.921 338.42 253.601 338.36C254.281 338.29 255.141 340.24 255.141 340.24C255.141 340.24 260.061 352.95 256.141 362.42C256.141 362.42 253.231 375.51 249.191 379.93C249.191 379.93 249.281 380.93 249.961 380.87C250.631 380.81 251.961 380.35 251.961 380.35C251.961 380.35 247.611 385.13 247.861 387.81C248.111 390.49 248.281 396.21 256.881 396.78C265.471 397.34 285.461 394.66 288.491 394.91C294.351 395.39 296.841 396.51 300.231 396.2C302.961 395.95 303.931 395.53 305.191 394.4C306.451 393.27 307.441 392.84 307.441 392.84C307.371 392.55 307.891 391.16 309.471 392.65C310.701 393.81 312.521 395.05 314.491 395.23C316.461 395.41 319.641 395.44 320.501 393.67C321.361 391.91 322.261 390.47 323.951 390.32C325.651 390.17 327.161 388.01 325.741 387.46C324.331 386.91 318.971 384.36 318.261 384.09C317.551 383.82 313.491 380.48 312.411 379.9L310.251 378.75C310.251 378.75 313.301 378.47 313.981 378.41C314.661 378.35 308.501 374.52 307.791 374.25C307.081 373.97 301.561 373.46 299.531 373.65C297.501 373.84 286.631 370.78 285.491 365.82C284.291 360.57 287.701 345.03 288.871 342.9C288.871 342.9 289.421 345.21 289.451 345.55ZM289.451 345.55C289.451 345.65 289.461 345.7 289.451 345.55ZM485.771 220.34C477.811 190.78 389.141 106.66 349.361 56.6502C309.571 6.63019 249.331 -13.8398 220.911 11.1702C192.491 36.1802 169.761 28.2202 108.371 45.2702C46.9807 62.3202 27.6607 125.99 27.6607 140.77C27.6607 155.55 24.2507 251.04 12.8807 278.32C1.51072 305.6 -5.30928 349.94 7.20072 362.44C19.7007 374.94 35.6207 409.05 49.2607 429.51C62.9007 449.97 79.4807 459.1 100.411 460.2C122.011 461.34 141.331 464.75 235.691 481.8C330.041 498.85 352.781 437.47 352.781 437.47C368.691 401.09 403.931 376.08 452.821 331.75C501.711 287.42 493.741 249.9 485.791 220.35L485.771 220.34ZM222.041 23.5902V24.8102C222.041 24.8102 269.781 -2.46981 307.301 28.2202C344.811 58.9102 301.621 31.6302 301.621 31.6302C301.621 31.6302 268.651 13.4402 230.001 25.9502C191.351 38.4502 222.041 23.5902 222.041 23.5902ZM31.0707 265.81C29.9107 273.68 28.8007 294.23 18.5707 318.1C8.34072 341.97 18.3707 351.14 19.7107 354.48C26.5307 371.53 17.9607 361.14 17.9607 361.14C17.9607 361.14 9.48072 351.07 8.34072 338.56C7.20072 326.06 23.9707 293.06 25.3907 265.81C27.0707 233.78 32.1807 258.29 31.0707 265.81ZM37.8907 154.41C37.8907 154.41 48.1207 74.8402 108.371 60.0602C168.621 45.2802 104.961 66.8802 104.961 66.8802C104.961 66.8802 53.8107 95.3002 45.8507 152.14C37.8907 208.98 37.8907 154.41 37.8907 154.41ZM374.371 382.9C353.911 413.59 244.781 476.11 133.381 424.96C133.381 424.96 92.4607 397.68 120.881 409.05C120.881 409.05 260.701 480.67 367.561 379.49C367.561 379.49 394.841 352.21 374.381 382.9H374.371ZM388.011 153.27C388.011 153.27 309.571 25.9502 163.231 88.6802C22.5407 148.99 52.2807 294.87 54.7807 306.05C54.8907 306.54 54.9607 307.02 55.0007 307.52C55.4807 314.3 58.5507 361.05 45.8507 296.5C32.2107 227.16 69.7207 82.7902 187.951 62.3302C306.181 41.8702 370.971 116.89 391.431 147.59C411.891 178.28 388.021 153.27 388.021 153.27H388.011ZM445.991 311.28C445.991 311.28 433.491 319.24 452.811 291.95C472.141 264.67 459.961 230.53 459.961 230.53C459.961 230.53 417.571 155.54 458.501 218.06C499.421 280.58 446.001 311.27 446.001 311.27L445.991 311.28Z" stroke="#9B191B" stroke-miterlimit="10"/>
</g>
<defs>
<clipPath id="clip0_251_4544">
<rect width="492.23" height="485.29" fill="white"/>
</clipPath>
</defs>
</svg>
