<?xml version="1.0" encoding="UTF-8"?><svg xmlns="http://www.w3.org/2000/svg" viewBox="0 0 441.88 435.65"><defs><style>.c{font-family:AmalfiCoast, Amalfi Coast;font-size:21px;}.c,.d,.e{fill:#f6e8c8;}.f{fill:#9b191b;stroke:#9b191b;stroke-miterlimit:10;}.d{font-family:LibreBaskerville-Regular, Libre Baskerville;font-size:37.61px;}</style></defs><g id="a"><polygon class="e" points="34.06 173.43 30.23 126 55.25 72.9 81.81 52.86 171.68 31.02 212.99 6.51 249.81 9.07 274.32 19.79 295.77 38.47 425.4 199.54 434.15 243.45 410.48 280.4 349.89 340.98 284.02 404.3 182.4 416.05 57.3 375.19 7.48 316.98 3.17 296.42 10.32 267.45 28.07 204.13 34.06 173.43"/></g><g id="b"><path class="f" d="M198.32,10.08c-25.51,22.45-45.91,15.3-101,30.61C42.22,55.99,24.87,113.12,24.87,126.39s-3.06,98.96-13.26,123.45c-10.2,24.49-16.32,64.28-5.1,75.5,11.22,11.22,25.51,41.83,37.75,60.19,12.24,18.36,27.12,26.56,45.91,27.55,19.38,1.02,36.73,4.08,121.41,19.38,84.68,15.3,105.09-39.79,105.09-39.79,14.28-32.65,45.91-55.09,89.78-94.88,43.87-39.79,36.73-73.46,29.59-99.98-7.14-26.53-86.72-102.03-122.43-146.92C277.9,6,223.82-12.37,198.32,10.08Zm137.73,333.62c-18.36,27.55-116.31,83.66-216.29,37.75,0,0-36.73-24.49-11.22-14.28,0,0,125.49,64.28,221.39-26.53,0,0,24.49-24.49,6.12,3.06ZM17.73,318.2c6.12,15.3-1.57,5.98-1.57,5.98,0,0-7.61-9.04-8.63-20.26s14.02-40.84,15.3-65.3c1.5-28.75,6.1-6.75,5.1,0-1.04,7.07-2.04,25.51-11.22,46.93-9.18,21.43-.18,29.65,1.02,32.65Zm393.82-122.43c36.73,56.11-11.22,83.66-11.22,83.66,0,0-11.22,7.14,6.12-17.34,17.34-24.49,6.41-55.13,6.41-55.13,0,0-38.04-67.3-1.31-11.19Zm-60.19-63.26c18.36,27.55-3.06,5.1-3.06,5.1,0,0-70.4-114.27-201.74-57.97C20.29,133.77,46.97,264.7,49.22,274.73c.1,.44,.16,.87,.19,1.32,.43,6.08,3.18,48.04-8.21-9.89-12.24-62.24,21.43-191.81,127.53-210.17,106.11-18.36,164.26,48.97,182.62,76.52ZM94.25,60.07s-45.91,25.51-53.05,76.52c-7.14,51.01-7.14,2.04-7.14,2.04,0,0,9.18-71.42,63.26-84.68,54.07-13.26-3.06,6.12-3.06,6.12ZM275.85,25.38c33.67,27.55-5.1,3.06-5.1,3.06,0,0-29.59-16.32-64.28-5.1-34.69,11.22-7.14-2.12-7.14-2.12v1.1s42.85-24.49,76.52,3.06Z"/><path class="e" d="M240.92,166.29s-2.52-8.92-7.97-12.53-16.47,1.36-16.47,1.36l1.6,.81s-5.39,1.36-7.71,5.35l1.27,.11s-7.13,5.23-8.43,9.83l-.02,.08h2.27s-7.84,10.83-21.57,20.84c0,0-25.51,8.36-32.68,22.85,0,0,2.05,.27,2.76-.06,0,0-10.69,14.64-9.8,22.5,0,0,1.24-.14,1.96-.47,0,0-2.06,19.64,2.56,24.84,0,0,1.37-1.94,1.6-3.22,.01-.07,.02-.14,.03-.2,.11-1.26,2.71,8.4,4.37,10.83s3.37,4.22,3.96,7.14c.58,2.92,.14,5.71,.14,5.71l1.29-.15s-4.47,3.24-4.77,5.02c0,0-2.71-3.92-3.21-3.87s-.8-.41-1.19,.63-.14,3.25-.14,3.25c0,0-3.7-1.57-3.98-1.79s-.75,.08-.72,.33,1.44,6.06,3.54,9.05c0,0,.61,.93,.14,1.23s-1.63-1.06-1.63-1.06c0,0-3.32-2.61-3.62-3.07s-1.88-1.03-1.8-.29,.42,3.68,.78,4.64c.36,.95,2.46,3.95,4.84,4.93,0,0,6.44-.98,13.35-2.26,0,0,7.46-5.32,11.05-9.21,0,0,.72-.33,.72,1.91,0,2.24,.86,3.14,1.22,4.09,.36,.95,.22,4.2,0,4.48s-.13,7.73,1.36,9.8c0,0,1.13-1.12,1.33-1.64,0,0,.92,8.11,1.22,8.57,0,0-1.02-.13-1.3-.35s-4.87-2.93-12.44,1.41c-7.57,4.34-9.29,2.54-9.29,2.54,0,0,.72,1.91,1.52,2.32s-4.45,.75-4.7,.78-6.86-2.71-12.69-3.04c0,0-.47,.3-.17,.77,0,0-7.52,.35-6.99,7.26,0,0,1.33,7.31,.81,9.36,0,0,.53,.19-1.82,3.94q-2.35,3.75-1.79,6.42c.55,2.67,1.66,5.78,1.36,7.56s-.68,4.99-.37,5.61,1.5,2.23,3.69,1.48l.47-.3s.44,1.69,3.68,1.33c0,0,.8,2.65,4.15,1.02,0,0,1.16,1.36,1.94,1.52s2.57,.46,2.87-1.32-.11-3.22-.11-3.22c0,0,.08-1.5,1.08-1.61s1.66,1.31,1.74,2.04-.63,3.31-.52,4.29,.22,1.97,1.27,2.34,3.65,1.08,4.34-1.73c.69-2.81,.88-7.81,.88-7.81,0,0-.78-6.88-1.47-8.54-.69-1.66,.99-9.07,7.46-9.8,6.47-.73,16.86-2.4,16.86-2.4,0,0,13.21-1.24,14.51-.89s3.29,.13,4.48-.51c1.19-.63,4.75-2.53,7.57-8.82,2.82-6.29,4.06-13.15,4.17-14.4,0,0,.44,1.69,1,2.13s1.57-1.67,1.77-2.19,1.16-5.36,1.16-5.36c0,0,2.05,2.51,3.62,3.07s2.9,1.16,3.65,1.08c0,0,.19-.52,.17-.77s2.77,2.18,2.77,2.18c0,0,.61,.93,.03,2.48s-2.76,9.02-2.01,13.41c0,0,.91-.85,1.41-.91s1.16,1.36,1.16,1.36c0,0,3.82,9.27,1.09,16.3,0,0-1.93,9.67-4.83,12.99,0,0,.08,.74,.58,.68s1.46-.41,1.46-.41c0,0-3.12,3.59-2.9,5.55s.45,6.17,6.78,6.45c6.33,.28,20.98-2.01,23.22-1.88,4.31,.26,6.16,1.04,8.65,.76,2.01-.23,2.71-.55,3.62-1.4,.91-.85,1.63-1.18,1.63-1.18-.05-.21,.3-1.24,1.49-.17,.92,.83,2.28,1.71,3.73,1.82,1.45,.1,3.79,.07,4.39-1.24,.61-1.31,1.24-2.38,2.49-2.52s2.32-1.76,1.27-2.13-5.03-2.17-5.56-2.36-3.57-2.58-4.37-2.99l-1.6-.81,2.74-.31c.5-.06-4.09-2.77-4.62-2.96s-4.59-.48-6.08-.31-9.54-1.91-10.45-5.54c-.97-3.84,1.29-15.32,2.12-16.91,0,0,.44,1.69,.47,1.94s-.03-.25-.03-.25c0,0,3.81-8.64,2.84-12.76,0,0,.53,.19,.83,.65,0,0,2.65-3.29,1.18-14.07,0,0,.61,.93,1.63,1.06,0,0,1.04-10.82-10.04-19.76,0,0,1.27,.11,1.52,.08,0,0-6.7-12.43-20.3-16.86,0,0,1.05-1.86,1.74-2.44,0,0,17.83,6.19,21.37,6.29,0,0,.74-.27,.87-.84,.02-.08,.02-.17,.01-.26-.08-.74-.06-.49-.06-.49,0,0,4.01,2.03,5.28,2.14,0,0,.39-1.04-.17-1.47,0,0,2.35,.73,6.63,.74,0,0,2.35,5.21,3.96,6.02,0,0,.69,1.66,.22,1.97s-5.2,.84-5.97,2.91c0,0,.11,.98,.89,1.14s5.72,1.59,5.72,1.59c0,0,.77,.16,1.96-.47s2.76-4.54,2.76-4.54c0,0,.69-.58,.77,.16s.61,.95,.18,1.61-3.14,3.45-3.36,3.73-.83,1.59-.3,1.78,5.25-.34,5.25-.34c0,0,3.15-1.1,3.34-1.62s.66-7.54,.66-7.54c0,0,.33-1.53,.97-.36s1,2.13,.86,3.14-.8,4.07-1.24,4.62-.61,1.31-.58,1.56-.08,1.5,1.33,.6,3.62-3.64,4.5-4.74,.85-3.58,.72-4.81l-.33-2.93s-.09-.76,.47-.32,1.44,1.58,1.27,2.34c-.17,.77-.41,3.03-.3,4.01s0,4.48,1.36,3.08,3.68-3.11,4.14-6.79c.47-3.68-1.86-6.4-2.16-6.87s-2.6-2.94-2.6-2.94c0,0,.74-2.32-.58-2.92-1.33-.6-3.26-2.12-4.37-2.99s-8.21-10.27-17.81-14.9c0,0,2.29,.24,2.76-.06,0,0-9.84-6.85-22.83-8.12,0,0,3.7-7.38,2.12-14.67,0,0,1.44,1.58,2.21,1.74,0,0,1.04-10.82-6.34-20.43,0,0-.58-.68-.08-.74s1.3,.35,1.24-.14-1.8-2.53-2.07-2.75-.17-1.47,.33-1.53,.99-.11,1.85,.79c.86,.9,.75,2.15,1.94,1.52,1.19-.63,2.21-2.74,2.15-3.23s1.66-3.17,1.77-4.43c0,0,.33,.71,.83,.65s1.66-3.17,1.21-4.86c-.44-1.69-2.1-3-2.3-4.72s0-2.24,.14-3.25,.08-1.5-.75-2.15-.58-.68-.39-1.2,.39-1.04-.14-1.23-1.13-1.12-1.41-1.33-1.05-.38-.42-1.45c.64-1.07,1.6-1.43,.99-2.35s-.72-4.15-5.59-4.84c0,0-.97,.36-.08-.74s1.16-5.36-1.05-4.86Z"/><text class="d" transform="translate(81.32 189.76) rotate(-58.66) scale(.98 1)"><tspan x="0" y="0">C</tspan></text><text class="d" transform="translate(96.51 165.42) rotate(-51.04) scale(.98 1)"><tspan x="0" y="0">r</tspan></text><text class="d" transform="translate(106.88 152.2) rotate(-43.91) scale(.98 1)"><tspan x="0" y="0">y</tspan></text><text class="d" transform="translate(123.08 136.41) rotate(-35.13) scale(.98 1)"><tspan x="0" y="0">p</tspan></text><text class="d" transform="translate(143.07 122.71) rotate(-28.08) scale(.98 1)"><tspan x="0" y="0">t</tspan></text><text class="d" transform="translate(154.58 116.2) rotate(-21.44) scale(.98 1)"><tspan x="0" y="0">o</tspan></text><text class="d" transform="translate(175.27 107.74) rotate(-13.02) scale(.98 1)"><tspan x="0" y="0">Z</tspan></text><text class="d" transform="translate(202 101.55) rotate(-3.98) scale(.98 1)"><tspan x="0" y="0">o</tspan></text><text class="d" transform="translate(225 99.84) rotate(5.57) scale(.98 1)"><tspan x="0" y="0">o</tspan></text><text class="d" transform="translate(248.14 102.44) rotate(13.1) scale(.98 1)"><tspan x="0" y="0">l</tspan></text><text class="d" transform="translate(259.11 104.53) rotate(20.59) scale(.98 1)"><tspan x="0" y="0">o</tspan></text><text class="d" transform="translate(280.74 112.68) rotate(29.75) scale(.98 1)"><tspan x="0" y="0">g</tspan></text><text class="d" transform="translate(299.17 123.11) rotate(38.01) scale(.98 1)"><tspan x="0" y="0">y</tspan></text><text class="d" transform="translate(316.25 136.75) rotate(43.31) scale(.98 1)"><tspan x="0" y="0"> </tspan></text><text class="c" transform="translate(160.37 153.18) rotate(-40.2) scale(.76 1)"><tspan x="0" y="0">U</tspan></text><text class="c" transform="translate(178.69 138.53) rotate(-27.2) scale(.76 1)"><tspan x="0" y="0">n</tspan></text><text class="c" transform="translate(187.79 133.9) rotate(-19.84) scale(.76 1)"><tspan x="0" y="0">l</tspan></text><text class="c" transform="translate(195.17 131.14) rotate(-12.8) scale(.76 1)"><tspan x="0" y="0">i</tspan></text><text class="c" transform="translate(204.61 128.96) rotate(-5.31) scale(.76 1)"><tspan x="0" y="0">m</tspan></text><text class="c" transform="translate(218.4 127.91) rotate(3.62) scale(.76 1)"><tspan x="0" y="0">i</tspan></text><text class="c" transform="translate(228.28 128.65) rotate(8.28) scale(.76 1)"><tspan x="0" y="0">t</tspan></text><text class="c" transform="translate(232.15 129.14) rotate(12.17) scale(.76 1)"><tspan x="0" y="0">e</tspan></text><text class="c" transform="translate(239.44 130.69) rotate(17.28) scale(.76 1)"><tspan x="0" y="0">d</tspan></text></g></svg>